<svg xmlns="http://www.w3.org/2000/svg" viewBox="0 0 75.3 40">
  <g fill="#232323">
    <path d="M31.4 0h2.7c1 0 1.3 0 1.6.1.8.3 1.3.9 1.3 1.7 0 .3-.1.7-.3 1-.2.3-.5.5-.9.5.8.1 1.6.8 1.6 2 0 .9-.4 1.6-1.3 1.9-.5.2-.8.2-1.7.2h-2.9L31.4 0zm1.4 1.2V3h1.3c.3 0 .7 0 1-.2.3-.1.5-.4.5-.8 0-.3-.2-.6-.4-.7-.3-.2-.4-.2-1.5-.2l-.9.1zm0 2.9v2.2h1.4c.8 0 1 0 1.4-.3.2-.1.3-.4.3-.8 0-.2 0-.4-.1-.6-.3-.6-1.1-.6-1.6-.6l-1.4.1zM43.6 6h-2.8l-.4 1.5h-1.5L41.4 0H43l2.6 7.5H44L43.6 6zm-.4-1.2l-1-3.4-1 3.4h2zM47.4 0h2.4c1 0 1.7 0 2.3.5.5.4.8 1 .8 1.8 0 1.4-1 1.9-1.5 2.1l1.7 3h-1.6L50 4.7h-1.2v2.8h-1.4V0zm1.4 1.2v2.3h1.4c.3 0 1.3-.1 1.3-1.2 0-.2 0-.7-.6-1-.3-.1-.7-.2-1.5-.2l-.6.1zM55.3 0h2.4c1 0 1.7 0 2.3.5.5.4.8 1 .8 1.8 0 1.4-1 1.9-1.5 2.1l1.7 3h-1.6l-1.5-2.8h-1.2v2.8h-1.4V0zm1.4 1.2v2.3h1.4c.3 0 1.3-.1 1.3-1.2 0-.2 0-.7-.6-1-.3-.1-.7-.2-1.5-.2l-.6.1zM64.5 1.3V3h3.6v1.2h-3.6v2h4.2v1.3h-5.6V0h5.3v1.3h-3.9zM72.3 6.2h3v1.3h-4.4V0h1.4v6.2z"/>
    <g>
      <path d="M7.9 0H0v15.8h7.9V7.9h7.9C15.7 3.5 12.2 0 7.9 0zM7.9 24.3H0V40h7.9v-7.9h7.9c-.1-4.3-3.6-7.8-7.9-7.8z"/>
    </g>
  </g>
</svg>
